<?xml version="1.0" encoding="UTF-8" standalone="no"?>
<svg
   xmlns:dc="http://purl.org/dc/elements/1.1/"
   xmlns:cc="http://creativecommons.org/ns#"
   xmlns:rdf="http://www.w3.org/1999/02/22-rdf-syntax-ns#"
   xmlns:svg="http://www.w3.org/2000/svg"
   xmlns="http://www.w3.org/2000/svg"
   xmlns:xlink="http://www.w3.org/1999/xlink"
   xmlns:sodipodi="http://sodipodi.sourceforge.net/DTD/sodipodi-0.dtd"
   xmlns:inkscape="http://www.inkscape.org/namespaces/inkscape"
   version="1.1"
   id="Your_Icon"
   x="0px"
   y="0px"
   width="64px"
   height="64px"
   viewBox="3.2 -6.4 64.0 86.4"
   enable-background="new 0 0 64 64"
   xml:space="preserve"
   inkscape:version="0.48.5 r10040"
   sodipodi:docname="Bus Icon.svg"><metadata
     id="metadata15"><rdf:RDF><cc:Work
         rdf:about=""><dc:format>image/svg+xml</dc:format><dc:type
           rdf:resource="http://purl.org/dc/dcmitype/StillImage" /></cc:Work></rdf:RDF></metadata><defs
     id="defs13"><linearGradient
       id="linearGradient3760"><stop
         style="stop-color:#c0a000;stop-opacity:1;"
         offset="0"
         id="stop3762" /><stop
         style="stop-color:#c0da00;stop-opacity:1;"
         offset="1"
         id="stop3764" /></linearGradient><linearGradient
       inkscape:collect="always"
       xlink:href="#linearGradient3760"
       id="linearGradient3768"
       x1="18.354237"
       y1="5.4576273"
       x2="36.493221"
       y2="55.97966"
       gradientUnits="userSpaceOnUse" /><linearGradient
       inkscape:collect="always"
       xlink:href="#linearGradient3760"
       id="linearGradient3778"
       gradientUnits="userSpaceOnUse"
       x1="18.354237"
       y1="5.4576273"
       x2="36.493221"
       y2="55.97966" /><filter
       style="color-interpolation-filters:sRGB;"
       inkscape:label="Drop Shadow"
       id="filter3850"
       width="1.2"
       height="1.2"><feFlood
         flood-opacity="0.5"
         flood-color="rgb(255,255,255)"
         result="flood"
         id="feFlood3852" /><feComposite
         in="flood"
         in2="SourceGraphic"
         operator="in"
         result="composite1"
         id="feComposite3854" /><feGaussianBlur
         in="composite"
         stdDeviation="0.77620689655172403"
         result="blur"
         id="feGaussianBlur3856" /><feOffset
         dx="2.4561403508772059"
         dy="2.4561403508772059"
         result="offset"
         id="feOffset3858" /><feComposite
         in="SourceGraphic"
         in2="offset"
         operator="over"
         result="composite2"
         id="feComposite3860" /></filter></defs><sodipodi:namedview
     pagecolor="#ffffff"
     bordercolor="#666666"
     borderopacity="1"
     objecttolerance="10"
     gridtolerance="10"
     guidetolerance="10"
     inkscape:pageopacity="0"
     inkscape:pageshadow="2"
     inkscape:window-width="1366"
     inkscape:window-height="713"
     id="namedview11"
     showgrid="false"
     inkscape:zoom="7.375"
     inkscape:cx="42.998616"
     inkscape:cy="32.383516"
     inkscape:window-x="-2"
     inkscape:window-y="-3"
     inkscape:window-maximized="1"
     inkscape:current-layer="Your_Icon" /><g
     id="g3"
     style="fill:url(#linearGradient3768);fill-opacity:1;stroke:#000000;stroke-width:1.00005967;stroke-miterlimit:4;stroke-opacity:1;stroke-dasharray:none;filter:url(#filter3850)"
     transform="matrix(1.1177333,0,0,1.1177333,-0.56746596,1.0325343)"><path
       d="M 54,6 H 10 v 25 c 0,1.656 1.343,3 3,3 h 17.757 l 7.122,7.121 C 38.422,41.663 39.172,42 40,42 h 11 c 1.657,0 3,-1.343 3,-3 V 6 l 0,0 z m -3,42 h -6 c -1.656,0 -3,1.343 -3,3 0,1.657 1.344,3 3,3 h 6 c 1.657,0 3,-1.343 3,-3 0,-1.657 -1.343,-3 -3,-3 l 0,0 z m -32,0 h -6 c -1.657,0 -3,1.343 -3,3 0,1.657 1.343,3 3,3 h 6 c 1.657,0 3,-1.343 3,-3 0,-1.657 -1.343,-3 -3,-3 l 0,0 z M 4,29 C 1.803,29 0.021,27.228 0,25.036 L 0,17 C 0,15.343 1.343,14 3,14 H 4 V 4 C 4,1.791 5.791,0 8,0 h 48 c 2.209,0 4,1.791 4,4 v 10 h 1 c 1.657,0 3,1.343 3,3 v 8 c 0,2.209 -1.791,4 -4,4 v 31 c 0,2.209 -1.791,4 -4,4 h -4 c -2.209,0 -4,-1.791 -4,-4 H 16 c 0,2.209 -1.791,4 -4,4 H 8 C 5.791,64 4,62.209 4,60 V 29 l 0,0 z"
       id="path5"
       style="fill:url(#linearGradient3778);fill-opacity:1;stroke:#000000;stroke-width:1.00005967;stroke-miterlimit:4;stroke-opacity:1;stroke-dasharray:none"
       inkscape:connector-curvature="0" /></g></svg>