<?xml version="1.0" encoding="UTF-8" standalone="no"?>
<svg
   xmlns:dc="http://purl.org/dc/elements/1.1/"
   xmlns:cc="http://creativecommons.org/ns#"
   xmlns:rdf="http://www.w3.org/1999/02/22-rdf-syntax-ns#"
   xmlns:svg="http://www.w3.org/2000/svg"
   xmlns="http://www.w3.org/2000/svg"
   xmlns:xlink="http://www.w3.org/1999/xlink"
   xmlns:sodipodi="http://sodipodi.sourceforge.net/DTD/sodipodi-0.dtd"
   xmlns:inkscape="http://www.inkscape.org/namespaces/inkscape"
   version="1.1"
   id="Your_Icon"
   x="0px"
   y="0px"
   width="512"
   height="250"
   viewBox="3.2 -6.4 512 337.5"
   enable-background="new 0 0 64 64"
   xml:space="preserve"
   inkscape:version="0.48.5 r10040"
   sodipodi:docname="Feature Graphic.svg"><metadata
     id="metadata15"><rdf:RDF><cc:Work
         rdf:about=""><dc:format>image/svg+xml</dc:format><dc:type
           rdf:resource="http://purl.org/dc/dcmitype/StillImage" /><dc:title></dc:title></cc:Work></rdf:RDF></metadata><defs
     id="defs13"><linearGradient
       id="linearGradient3760"><stop
         style="stop-color:#c0a000;stop-opacity:1;"
         offset="0"
         id="stop3762" /><stop
         style="stop-color:#c0da00;stop-opacity:1;"
         offset="1"
         id="stop3764" /></linearGradient><linearGradient
       inkscape:collect="always"
       xlink:href="#linearGradient3760"
       id="linearGradient3768"
       x1="18.354237"
       y1="5.4576273"
       x2="36.493221"
       y2="55.97966"
       gradientUnits="userSpaceOnUse" /><linearGradient
       inkscape:collect="always"
       xlink:href="#linearGradient3760"
       id="linearGradient3778"
       gradientUnits="userSpaceOnUse"
       x1="18.354237"
       y1="5.4576273"
       x2="36.493221"
       y2="55.97966" /><filter
       inkscape:label="Drop Shadow"
       id="filter3850"
       width="1.2"
       height="1.2"
       color-interpolation-filters="sRGB"><feFlood
         flood-opacity="0.5"
         flood-color="rgb(255,255,255)"
         result="flood"
         id="feFlood3852" /><feComposite
         in="flood"
         in2="SourceGraphic"
         operator="in"
         result="composite1"
         id="feComposite3854" /><feGaussianBlur
         stdDeviation="0.77620689655172403"
         result="blur"
         id="feGaussianBlur3856" /><feOffset
         dx="2.4561403508772059"
         dy="2.4561403508772059"
         result="offset"
         id="feOffset3858" /><feComposite
         in="SourceGraphic"
         in2="offset"
         operator="over"
         result="composite2"
         id="feComposite3860" /></filter></defs><sodipodi:namedview
     pagecolor="#ffffff"
     bordercolor="#666666"
     borderopacity="1"
     objecttolerance="10"
     gridtolerance="10"
     guidetolerance="10"
     inkscape:pageopacity="0"
     inkscape:pageshadow="2"
     inkscape:window-width="1366"
     inkscape:window-height="704"
     id="namedview11"
     showgrid="false"
     inkscape:zoom="1.3037281"
     inkscape:cx="243.96145"
     inkscape:cy="143.16433"
     inkscape:window-x="-4"
     inkscape:window-y="0"
     inkscape:window-maximized="1"
     inkscape:current-layer="Your_Icon" /><rect
     style="fill:#d3d3d3;fill-opacity:1;stroke:none"
     id="rect3789"
     width="691.20001"
     height="337.5"
     x="-86.400002"
     y="-6.3999996" /><g
     id="g3"
     style="fill:url(#linearGradient3768);fill-opacity:1;stroke:#000000;stroke-width:1.00005972;stroke-miterlimit:4;stroke-opacity:1;stroke-dasharray:none;filter:url(#filter3850)"
     transform="matrix(3.4534644,0,0,3.4534644,-66.509181,46.399404)"><path
       d="M 54,6 H 10 v 25 c 0,1.656 1.343,3 3,3 h 17.757 l 7.122,7.121 C 38.422,41.663 39.172,42 40,42 h 11 c 1.657,0 3,-1.343 3,-3 V 6 l 0,0 z m -3,42 h -6 c -1.656,0 -3,1.343 -3,3 0,1.657 1.344,3 3,3 h 6 c 1.657,0 3,-1.343 3,-3 0,-1.657 -1.343,-3 -3,-3 l 0,0 z m -32,0 h -6 c -1.657,0 -3,1.343 -3,3 0,1.657 1.343,3 3,3 h 6 c 1.657,0 3,-1.343 3,-3 0,-1.657 -1.343,-3 -3,-3 l 0,0 z M 4,29 C 1.803,29 0.021,27.228 0,25.036 L 0,17 C 0,15.343 1.343,14 3,14 H 4 V 4 C 4,1.791 5.791,0 8,0 h 48 c 2.209,0 4,1.791 4,4 v 10 h 1 c 1.657,0 3,1.343 3,3 v 8 c 0,2.209 -1.791,4 -4,4 v 31 c 0,2.209 -1.791,4 -4,4 h -4 c -2.209,0 -4,-1.791 -4,-4 H 16 c 0,2.209 -1.791,4 -4,4 H 8 C 5.791,64 4,62.209 4,60 V 29 l 0,0 z"
       id="path5"
       style="fill:url(#linearGradient3778);fill-opacity:1;stroke:#000000;stroke-width:1.00005972;stroke-miterlimit:4;stroke-opacity:1;stroke-dasharray:none"
       inkscape:connector-curvature="0" /></g><flowRoot
     xml:space="preserve"
     id="flowRoot3013"
     style="font-size:32px;font-style:normal;font-weight:normal;line-height:125%;letter-spacing:0px;word-spacing:0px;fill:#c0bb00;fill-opacity:1;stroke:#000000;font-family:Sans;stroke-opacity:1"
     transform="matrix(1.35,0,0,1.35,-137.13911,-15.719428)"><flowRegion
       id="flowRegion3015"><rect
         id="rect3017"
         width="312.18161"
         height="216.30278"
         x="239.31371"
         y="48.270824"
         style="fill:#c0bb00;fill-opacity:1;stroke:#000000;stroke-opacity:1" /></flowRegion><flowPara
       id="flowPara3019"
       style="font-size:64px;fill:#c0bb00;fill-opacity:1;stroke:#000000;stroke-opacity:1">GT Bus Locations</flowPara></flowRoot></svg>